<svg id="Layer_1" data-name="Layer 1" xmlns="http://www.w3.org/2000/svg" viewBox="0 0 106.67 106.67">
  <defs>
    <style>.cls-1{fill:#0092d5;}</style>
  </defs>
  <title>The_Content_Icono_Revistas</title>
  <circle class="cls-1" cx="50.67" cy="41.04" r="1.06"/>
  <circle class="cls-1" cx="55.1" cy="41.04" r="1.06"/>
  <circle class="cls-1" cx="59.33" cy="41.04" r="1.06"/>
  <polygon class="cls-1" points="60.51 44 36.3 44 36.3 58.84 44.52 58.84 44.52 46.19 60.51 46.19 60.51 44"/>
  <circle class="cls-1" cx="64.95" cy="49.99" r="1.06"/>
  <circle class="cls-1" cx="69.18" cy="49.99" r="1.06"/>
  <path class="cls-1" d="M53.33,14.48A38.86,38.86,0,1,0,92.19,53.34,38.86,38.86,0,0,0,53.33,14.48ZM72,69.43H44.52V60.48H34.67V37.24H62.15v8.95H72Z"/>
  <rect class="cls-1" x="46.16" y="52.95" width="24.21" height="14.84"/>
  <circle class="cls-1" cx="60.52" cy="49.99" r="1.06"/>
</svg>